<svg xmlns="http://www.w3.org/2000/svg" xmlns:xlink="http://www.w3.org/1999/xlink" width="345.165" height="29.592" viewBox="0 0 345.165 29.592">
  <defs>
    <clipPath id="clip-path">
      <rect id="Rectángulo_61" data-name="Rectángulo 61" width="345.165" height="29.592" fill="#fff"/>
    </clipPath>
  </defs>
  <g id="logo-blanco" transform="translate(-50.181 28)">
    <g id="Grupo_111" data-name="Grupo 111" transform="translate(50.181 -28)" clip-path="url(#clip-path)">
      <path id="Trazado_156" data-name="Trazado 156" d="M25.626,17.733l-1.467,6.918h-.64a.472.472,0,0,1-.5-.515.715.715,0,0,1,.016-.171l1.343-6.232H19.723l-1.343,6.294a.8.8,0,0,1-.266.484.73.73,0,0,1-.453.14h-.656l1.468-6.918H15.615a.531.531,0,0,1-.344-.1.453.453,0,0,1-.125-.367v-.149a1.268,1.268,0,0,1,.031-.227l.047-.25h3.4l1.281-6.075H15.959l.094-.593q.062-.515.687-.515h3.325l1.359-6.309a.719.719,0,0,1,.258-.445.742.742,0,0,1,.461-.148H22.8l-1.483,6.9h4.654l1.484-6.9h.655a.421.421,0,0,1,.484.468.805.805,0,0,1-.016.187L27.219,9.456h3.514l-.094.593q-.078.515-.7.515H27.063l-1.281,6.075H29.3q.469,0,.469.406l-.063.687Zm-5.747-1.093h4.654l1.281-6.075H21.159Z" transform="translate(-1.733 -0.292)" fill="#fff"/>
      <path id="Trazado_157" data-name="Trazado 157" d="M48.815,19.154c.063-.166.128-.33.2-.492a4.055,4.055,0,0,1,.227-.461L57.92,2.85a.568.568,0,0,1,.25-.25.992.992,0,0,1,.344-.047h1.109v22.1H58.217V5.816a8.425,8.425,0,0,1,.047-.858L49.565,20.4a.682.682,0,0,1-.625.406h-.25a.7.7,0,0,1-.624-.406L39.132,4.942a8.572,8.572,0,0,1,.047.874V24.652h-1.39V2.553h1.094a1.067,1.067,0,0,1,.352.047.562.562,0,0,1,.258.25l8.917,15.367a6.358,6.358,0,0,1,.406.937" transform="translate(-4.323 -0.292)" fill="#fff"/>
      <path id="Trazado_158" data-name="Trazado 158" d="M74.709,9.678a6.4,6.4,0,0,1,2.428.453,5.462,5.462,0,0,1,1.937,1.32,6.085,6.085,0,0,1,1.281,2.131,8.485,8.485,0,0,1,.461,2.906.769.769,0,0,1-.1.468.383.383,0,0,1-.319.125H69.18v.3a10.535,10.535,0,0,0,.406,3.078,6.311,6.311,0,0,0,1.156,2.225,4.763,4.763,0,0,0,1.812,1.351,5.988,5.988,0,0,0,2.373.453,7.1,7.1,0,0,0,2.03-.258,7.572,7.572,0,0,0,1.445-.577,8,8,0,0,0,.929-.578,1.053,1.053,0,0,1,.5-.258.359.359,0,0,1,.313.157l.406.5a4.239,4.239,0,0,1-.991.875,7.089,7.089,0,0,1-1.375.694,9.922,9.922,0,0,1-1.624.461,8.878,8.878,0,0,1-1.74.172,7.382,7.382,0,0,1-2.906-.554A6.172,6.172,0,0,1,69.662,23.5a7.4,7.4,0,0,1-1.452-2.6,11.121,11.121,0,0,1-.513-3.522,9.592,9.592,0,0,1,.476-3.084,7.069,7.069,0,0,1,1.374-2.436,6.26,6.26,0,0,1,2.2-1.6,7.237,7.237,0,0,1,2.96-.577m.023,1.109a5.834,5.834,0,0,0-2.152.375,4.714,4.714,0,0,0-1.645,1.078,5.527,5.527,0,0,0-1.123,1.686,7.727,7.727,0,0,0-.569,2.2h10.23a6.839,6.839,0,0,0-.344-2.241,4.807,4.807,0,0,0-.966-1.679,4.193,4.193,0,0,0-1.5-1.054,4.948,4.948,0,0,0-1.933-.367" transform="translate(-7.744 -1.107)" fill="#fff"/>
      <path id="Trazado_159" data-name="Trazado 159" d="M97.892,24.571a.415.415,0,0,1-.447-.406l-.157-2.452a8.262,8.262,0,0,1-2.416,2.234,5.933,5.933,0,0,1-3.1.827A5.422,5.422,0,0,1,87.3,22.791q-1.6-1.983-1.6-5.95a10.927,10.927,0,0,1,.445-3.178A7.541,7.541,0,0,1,87.461,11.1a6.231,6.231,0,0,1,2.126-1.71,6.449,6.449,0,0,1,2.9-.625,5.989,5.989,0,0,1,2.737.586,5.723,5.723,0,0,1,2,1.71V1.848H98.71V24.571Zm-5.7-1a5.112,5.112,0,0,0,2.8-.8,7.937,7.937,0,0,0,2.236-2.218v-8.2a5.476,5.476,0,0,0-1.994-1.874,5.937,5.937,0,0,0-4.872-.047,4.742,4.742,0,0,0-1.729,1.413,6.369,6.369,0,0,0-1.049,2.187,10.5,10.5,0,0,0-.352,2.8,8.236,8.236,0,0,0,1.282,5.1,4.4,4.4,0,0,0,3.676,1.632" transform="translate(-9.803 -0.211)" fill="#fff"/>
      <path id="Trazado_160" data-name="Trazado 160" d="M106.591,24.6V10.686l-2.187-.141c-.3-.021-.453-.151-.453-.391V9.546h2.639V8.531A7.811,7.811,0,0,1,107,5.978a5.774,5.774,0,0,1,1.188-2.038A5.367,5.367,0,0,1,110.128,2.6a6.889,6.889,0,0,1,2.663-.484q.53,0,1.1.032T115,2.222q.539.046,1.007.078t.8.032h1.124V24.6h-1.483V3.378q-.844-.031-1.773-.094t-1.678-.063a5.623,5.623,0,0,0-2.093.368,4.133,4.133,0,0,0-1.554,1.062,4.736,4.736,0,0,0-.968,1.679,6.784,6.784,0,0,0-.336,2.2V9.546h4.5v1.109h-4.467V24.6Z" transform="translate(-11.891 -0.242)" fill="#fff"/>
      <path id="Trazado_161" data-name="Trazado 161" d="M127.284,9.96v9.933a5.307,5.307,0,0,0,1,3.427,3.7,3.7,0,0,0,3.056,1.242,5.5,5.5,0,0,0,2.836-.773,8.222,8.222,0,0,0,2.366-2.147V9.96h1.483V25.5h-.817c-.288,0-.437-.135-.447-.406l-.142-2.311a8.827,8.827,0,0,1-2.494,2.156,6.224,6.224,0,0,1-3.152.812,5.832,5.832,0,0,1-2.267-.406,4.158,4.158,0,0,1-1.611-1.172,5.179,5.179,0,0,1-.97-1.842,8.365,8.365,0,0,1-.328-2.436V9.96Z" transform="translate(-14.39 -1.139)" fill="#fff"/>
      <path id="Trazado_162" data-name="Trazado 162" d="M151.028,9.678a6.4,6.4,0,0,1,2.428.453,5.461,5.461,0,0,1,1.937,1.32,6.085,6.085,0,0,1,1.281,2.131,8.485,8.485,0,0,1,.461,2.906.77.77,0,0,1-.1.468.383.383,0,0,1-.319.125H145.5v.3a10.534,10.534,0,0,0,.406,3.078,6.311,6.311,0,0,0,1.156,2.225,4.763,4.763,0,0,0,1.812,1.351,5.988,5.988,0,0,0,2.373.453,7.1,7.1,0,0,0,2.03-.258,7.572,7.572,0,0,0,1.445-.577,8,8,0,0,0,.929-.578,1.053,1.053,0,0,1,.5-.258.359.359,0,0,1,.313.157l.406.5a4.24,4.24,0,0,1-.991.875,7.089,7.089,0,0,1-1.375.694,9.922,9.922,0,0,1-1.624.461,8.878,8.878,0,0,1-1.74.172,7.382,7.382,0,0,1-2.906-.554,6.172,6.172,0,0,1-2.251-1.616,7.4,7.4,0,0,1-1.452-2.6,11.121,11.121,0,0,1-.513-3.522,9.592,9.592,0,0,1,.476-3.084,7.069,7.069,0,0,1,1.374-2.436,6.26,6.26,0,0,1,2.2-1.6,7.236,7.236,0,0,1,2.96-.577m.023,1.109a5.834,5.834,0,0,0-2.152.375,4.714,4.714,0,0,0-1.645,1.078,5.527,5.527,0,0,0-1.123,1.686,7.726,7.726,0,0,0-.569,2.2h10.23a6.839,6.839,0,0,0-.344-2.241,4.807,4.807,0,0,0-.966-1.679,4.193,4.193,0,0,0-1.5-1.054,4.948,4.948,0,0,0-1.933-.367" transform="translate(-16.474 -1.107)" fill="#fff"/>
      <path id="Trazado_163" data-name="Trazado 163" d="M163.343,25.467V9.928h.812a.423.423,0,0,1,.468.391l.14,2.342a8.721,8.721,0,0,1,2.475-2.163,6.152,6.152,0,0,1,3.147-.82,5.85,5.85,0,0,1,2.257.406,4.146,4.146,0,0,1,1.616,1.172,5.174,5.174,0,0,1,.968,1.843,8.326,8.326,0,0,1,.329,2.436v9.932h-1.483V15.535a5.327,5.327,0,0,0-1-3.428,3.694,3.694,0,0,0-3.061-1.242,5.424,5.424,0,0,0-2.843.788,8.276,8.276,0,0,0-2.342,2.164v11.65Z" transform="translate(-18.684 -1.107)" fill="#fff"/>
      <path id="Trazado_164" data-name="Trazado 164" d="M192.5,12a1.7,1.7,0,0,1-.148.133.314.314,0,0,1-.2.054.819.819,0,0,1-.43-.21A5.869,5.869,0,0,0,191,11.52a6.157,6.157,0,0,0-1.132-.461,6.33,6.33,0,0,0-4.03.266,4.717,4.717,0,0,0-1.749,1.367,6.275,6.275,0,0,0-1.086,2.155,10.005,10.005,0,0,0-.375,2.843,10.047,10.047,0,0,0,.383,2.9,6.184,6.184,0,0,0,1.086,2.132,4.629,4.629,0,0,0,1.7,1.32,5.309,5.309,0,0,0,2.218.453,5.742,5.742,0,0,0,1.882-.265,6.119,6.119,0,0,0,1.25-.578,5.522,5.522,0,0,0,.78-.578.812.812,0,0,1,.461-.265.359.359,0,0,1,.313.156l.406.5a4.572,4.572,0,0,1-.906.875,6.177,6.177,0,0,1-1.234.7,7.641,7.641,0,0,1-1.491.461,8.417,8.417,0,0,1-1.679.164,6.672,6.672,0,0,1-2.71-.538,5.874,5.874,0,0,1-2.108-1.562,7.288,7.288,0,0,1-1.374-2.506,10.708,10.708,0,0,1-.492-3.373,10.637,10.637,0,0,1,.468-3.248,7.3,7.3,0,0,1,1.366-2.53,6.133,6.133,0,0,1,2.2-1.647,7.232,7.232,0,0,1,2.991-.585,7.054,7.054,0,0,1,2.694.484,6.625,6.625,0,0,1,2.054,1.312Z" transform="translate(-20.718 -1.107)" fill="#fff"/>
      <path id="Trazado_165" data-name="Trazado 165" d="M204.176,9.678a6.4,6.4,0,0,1,2.428.453,5.462,5.462,0,0,1,1.937,1.32,6.085,6.085,0,0,1,1.281,2.131,8.486,8.486,0,0,1,.461,2.906.769.769,0,0,1-.1.468.383.383,0,0,1-.319.125H198.647v.3a10.533,10.533,0,0,0,.407,3.078,6.31,6.31,0,0,0,1.156,2.225,4.763,4.763,0,0,0,1.812,1.351,5.988,5.988,0,0,0,2.373.453,7.1,7.1,0,0,0,2.03-.258,7.571,7.571,0,0,0,1.445-.577,8,8,0,0,0,.929-.578,1.053,1.053,0,0,1,.5-.258.359.359,0,0,1,.313.157l.406.5a4.238,4.238,0,0,1-.991.875,7.089,7.089,0,0,1-1.375.694,9.922,9.922,0,0,1-1.624.461,8.878,8.878,0,0,1-1.74.172,7.382,7.382,0,0,1-2.906-.554,6.172,6.172,0,0,1-2.251-1.616,7.4,7.4,0,0,1-1.452-2.6,11.121,11.121,0,0,1-.513-3.522,9.592,9.592,0,0,1,.476-3.084,7.068,7.068,0,0,1,1.374-2.436,6.26,6.26,0,0,1,2.2-1.6,7.237,7.237,0,0,1,2.96-.577m.023,1.109a5.834,5.834,0,0,0-2.152.375,4.713,4.713,0,0,0-1.645,1.078,5.527,5.527,0,0,0-1.123,1.686,7.726,7.726,0,0,0-.569,2.2h10.23a6.839,6.839,0,0,0-.344-2.241,4.807,4.807,0,0,0-.966-1.679,4.193,4.193,0,0,0-1.5-1.054,4.948,4.948,0,0,0-1.933-.367" transform="translate(-22.553 -1.107)" fill="#fff"/>
      <path id="Trazado_166" data-name="Trazado 166" d="M216.492,25.465V9.926h.78a.549.549,0,0,1,.383.109.538.538,0,0,1,.133.375l.125,3.28a7.391,7.391,0,0,1,2-2.96,4.566,4.566,0,0,1,3.077-1.07,5.315,5.315,0,0,1,1.3.149,4.97,4.97,0,0,1,1.125.43l-.2,1.03a.282.282,0,0,1-.313.25.838.838,0,0,1-.265-.062q-.173-.062-.43-.141a5.218,5.218,0,0,0-1.491-.2,4,4,0,0,0-2.9,1.093,7.825,7.825,0,0,0-1.835,3.155v10.1Z" transform="translate(-24.764 -1.105)" fill="#fff"/>
      <path id="Trazado_167" data-name="Trazado 167" d="M238.9,11.865a.361.361,0,0,1-.344.219.849.849,0,0,1-.445-.2,7.1,7.1,0,0,0-.718-.437,5.846,5.846,0,0,0-1.093-.437,5.559,5.559,0,0,0-1.585-.2,4.656,4.656,0,0,0-1.538.242,3.819,3.819,0,0,0-1.187.646,2.922,2.922,0,0,0-.765.942,2.456,2.456,0,0,0-.274,1.129,1.924,1.924,0,0,0,.375,1.215,3.223,3.223,0,0,0,.984.825,7.5,7.5,0,0,0,1.382.592q.773.25,1.585.5t1.585.554a5.942,5.942,0,0,1,1.382.757,3.584,3.584,0,0,1,.984,1.109,3.165,3.165,0,0,1,.375,1.593,4.834,4.834,0,0,1-.367,1.889,4.291,4.291,0,0,1-1.062,1.515,5.088,5.088,0,0,1-1.71,1.015,6.65,6.65,0,0,1-2.311.375,6.985,6.985,0,0,1-2.827-.523,7.937,7.937,0,0,1-2.124-1.366l.36-.531a.6.6,0,0,1,.171-.187.479.479,0,0,1,.266-.063.86.86,0,0,1,.5.25,6.242,6.242,0,0,0,.773.539,6.375,6.375,0,0,0,1.187.538,5.344,5.344,0,0,0,1.756.25,5.065,5.065,0,0,0,1.734-.273,3.615,3.615,0,0,0,1.25-.742,3.1,3.1,0,0,0,.757-1.1,3.505,3.505,0,0,0,.258-1.336,2.148,2.148,0,0,0-.375-1.3,3.211,3.211,0,0,0-.984-.874,6.907,6.907,0,0,0-1.382-.609q-.773-.25-1.592-.5t-1.593-.547a5.757,5.757,0,0,1-1.382-.749,3.619,3.619,0,0,1-.984-1.1,3.188,3.188,0,0,1-.375-1.616,3.713,3.713,0,0,1,.359-1.593,4.066,4.066,0,0,1,1.024-1.343,5.021,5.021,0,0,1,1.616-.921,6.287,6.287,0,0,1,2.14-.344,7.165,7.165,0,0,1,2.521.412,6.156,6.156,0,0,1,2.023,1.259Z" transform="translate(-26.218 -1.107)" fill="#fff"/>
      <path id="Trazado_168" data-name="Trazado 168" d="M264.943,24.589h-3.248a1.416,1.416,0,0,1-.9-.273,1.558,1.558,0,0,1-.507-.679L258.6,19.03h-9.355l-1.686,4.607a1.473,1.473,0,0,1-.492.655,1.378,1.378,0,0,1-.9.3h-3.264l8.87-22.582h4.3Zm-14.618-8.527h7.2l-2.748-7.512q-.187-.5-.414-1.179T253.917,5.9q-.219.8-.43,1.483c-.14.459-.279.859-.414,1.2Z" transform="translate(-27.786 -0.23)" fill="#fff"/>
      <path id="Trazado_169" data-name="Trazado 169" d="M281.29,12.77a1.881,1.881,0,0,1-.336.344.776.776,0,0,1-.476.125,1.06,1.06,0,0,1-.577-.18q-.282-.179-.672-.406a4.966,4.966,0,0,0-.929-.406,4.275,4.275,0,0,0-1.336-.179,4.076,4.076,0,0,0-1.78.367,3.373,3.373,0,0,0-1.273,1.054,4.762,4.762,0,0,0-.758,1.663,8.983,8.983,0,0,0-.25,2.21,8.652,8.652,0,0,0,.274,2.28,4.873,4.873,0,0,0,.788,1.679,3.4,3.4,0,0,0,1.25,1.03,3.784,3.784,0,0,0,1.656.352,4.1,4.1,0,0,0,1.491-.227,4.675,4.675,0,0,0,.96-.5q.391-.274.679-.5a1.027,1.027,0,0,1,.648-.227.782.782,0,0,1,.7.36l1.109,1.405a7.017,7.017,0,0,1-1.39,1.258,7.548,7.548,0,0,1-1.553.812,7.97,7.97,0,0,1-1.663.43,11.962,11.962,0,0,1-1.7.125,7.111,7.111,0,0,1-2.8-.554,6.538,6.538,0,0,1-2.288-1.616,7.828,7.828,0,0,1-1.546-2.6,10.054,10.054,0,0,1-.569-3.506,10.2,10.2,0,0,1,.507-3.272,7.4,7.4,0,0,1,1.491-2.608,6.837,6.837,0,0,1,2.436-1.725,8.38,8.38,0,0,1,3.342-.625,7.964,7.964,0,0,1,3.147.577,7.706,7.706,0,0,1,2.428,1.656Z" transform="translate(-30.765 -1.045)" fill="#fff"/>
      <path id="Trazado_170" data-name="Trazado 170" d="M299.446,25.4h-1.734a1.867,1.867,0,0,1-.858-.164,1.055,1.055,0,0,1-.469-.664l-.343-1.14a13.273,13.273,0,0,1-1.2.961,7.279,7.279,0,0,1-1.21.694,6.16,6.16,0,0,1-1.328.422,7.972,7.972,0,0,1-1.561.141,6.121,6.121,0,0,1-1.875-.275,4.034,4.034,0,0,1-1.475-.822,3.751,3.751,0,0,1-.961-1.364,4.858,4.858,0,0,1-.344-1.9,3.748,3.748,0,0,1,.477-1.8,4.5,4.5,0,0,1,1.585-1.6,10.119,10.119,0,0,1,2.952-1.183,18.844,18.844,0,0,1,4.576-.47V15.3A3.583,3.583,0,0,0,295,12.9a2.481,2.481,0,0,0-1.976-.778,4.769,4.769,0,0,0-1.561.219,5.981,5.981,0,0,0-1.086.492q-.461.274-.851.492a1.725,1.725,0,0,1-.859.22,1.113,1.113,0,0,1-.671-.2,1.6,1.6,0,0,1-.453-.5l-.7-1.234a9.525,9.525,0,0,1,6.669-2.53,6.439,6.439,0,0,1,2.506.461,5.33,5.33,0,0,1,1.866,1.281,5.492,5.492,0,0,1,1.164,1.96,7.532,7.532,0,0,1,.4,2.5Zm-7.5-2.405a5.2,5.2,0,0,0,1.094-.108,4.157,4.157,0,0,0,.945-.322,5.077,5.077,0,0,0,.858-.53,7.857,7.857,0,0,0,.836-.747V18.6a15.64,15.64,0,0,0-2.819.213,7.432,7.432,0,0,0-1.819.542,2.35,2.35,0,0,0-.977.771,1.715,1.715,0,0,0-.289.959,1.692,1.692,0,0,0,.6,1.463,2.6,2.6,0,0,0,1.569.44" transform="translate(-32.725 -1.039)" fill="#fff"/>
      <path id="Trazado_171" data-name="Trazado 171" d="M316.587,24.508a.948.948,0,0,1-.984-.7l-.313-1.546a9.55,9.55,0,0,1-1.046,1.016,6.644,6.644,0,0,1-1.18.781,6.119,6.119,0,0,1-1.359.507,6.482,6.482,0,0,1-1.569.181,5.222,5.222,0,0,1-4.287-2.133,7.575,7.575,0,0,1-1.218-2.569,12.941,12.941,0,0,1-.43-3.5,10.905,10.905,0,0,1,.484-3.31,8.05,8.05,0,0,1,1.39-2.655,6.493,6.493,0,0,1,2.171-1.757,6.269,6.269,0,0,1,2.843-.632,5.566,5.566,0,0,1,2.3.43,6,6,0,0,1,1.7,1.148V1.3h3.858V24.508Zm-5.138-2.827a3.954,3.954,0,0,0,2.047-.5,6.075,6.075,0,0,0,1.592-1.421V12.577a3.791,3.791,0,0,0-1.428-1.124A4.214,4.214,0,0,0,312,11.124a3.732,3.732,0,0,0-1.584.329,3.088,3.088,0,0,0-1.2.991,4.871,4.871,0,0,0-.758,1.687,9.713,9.713,0,0,0-.266,2.412,10.741,10.741,0,0,0,.227,2.382,4.71,4.71,0,0,0,.648,1.593,2.466,2.466,0,0,0,1.031.889,3.277,3.277,0,0,0,1.359.274" transform="translate(-34.797 -0.149)" fill="#fff"/>
      <path id="Trazado_172" data-name="Trazado 172" d="M332.04,9.131a7.8,7.8,0,0,1,2.789.484,6.109,6.109,0,0,1,2.193,1.413,6.479,6.479,0,0,1,1.437,2.28,8.61,8.61,0,0,1,.515,3.085,5.464,5.464,0,0,1-.04.726,1.171,1.171,0,0,1-.14.453.572.572,0,0,1-.274.235,1.163,1.163,0,0,1-.437.07h-9.9A5.517,5.517,0,0,0,329.51,21.5a4.138,4.138,0,0,0,3.061,1.156,5.3,5.3,0,0,0,1.617-.219,7.56,7.56,0,0,0,1.187-.484q.508-.266.89-.484a1.5,1.5,0,0,1,.742-.219.848.848,0,0,1,.406.094.9.9,0,0,1,.3.266l1.125,1.405a6.409,6.409,0,0,1-1.437,1.258,8.138,8.138,0,0,1-1.663.812,9.1,9.1,0,0,1-1.765.429,12.634,12.634,0,0,1-1.741.126,8.562,8.562,0,0,1-3.108-.554,6.969,6.969,0,0,1-2.5-1.64,7.69,7.69,0,0,1-1.67-2.686,10.387,10.387,0,0,1-.609-3.71,8.86,8.86,0,0,1,.53-3.084,7.416,7.416,0,0,1,1.523-2.514,7.161,7.161,0,0,1,2.42-1.7,7.983,7.983,0,0,1,3.225-.624m.079,2.764a3.566,3.566,0,0,0-2.64.953,4.7,4.7,0,0,0-1.219,2.7h7.248a4.776,4.776,0,0,0-.2-1.413,3.277,3.277,0,0,0-.624-1.164,2.968,2.968,0,0,0-1.063-.788,3.61,3.61,0,0,0-1.5-.29" transform="translate(-37.101 -1.045)" fill="#fff"/>
      <path id="Trazado_173" data-name="Trazado 173" d="M344.409,25.4V9.381h2.358a.948.948,0,0,1,.984.7l.25,1.187a9.24,9.24,0,0,1,.882-.859,5.636,5.636,0,0,1,.984-.671,5.338,5.338,0,0,1,1.125-.445,5.018,5.018,0,0,1,1.32-.164,3.743,3.743,0,0,1,2.491.82,4.945,4.945,0,0,1,1.46,2.179,4.9,4.9,0,0,1,.936-1.366,5.15,5.15,0,0,1,1.234-.93,5.705,5.705,0,0,1,1.428-.53,6.883,6.883,0,0,1,1.522-.172,6.417,6.417,0,0,1,2.359.406,4.531,4.531,0,0,1,1.733,1.188,5.245,5.245,0,0,1,1.07,1.9,8.309,8.309,0,0,1,.367,2.577V25.4h-3.857v-10.2a3.425,3.425,0,0,0-.672-2.3,2.465,2.465,0,0,0-1.968-.773,2.932,2.932,0,0,0-1.1.2,2.625,2.625,0,0,0-.89.585,2.679,2.679,0,0,0-.6.961,3.724,3.724,0,0,0-.219,1.328V25.4h-3.873v-10.2a3.488,3.488,0,0,0-.648-2.342,2.416,2.416,0,0,0-1.913-.734,3.1,3.1,0,0,0-1.554.414,5.229,5.229,0,0,0-1.351,1.133V25.4Z" transform="translate(-39.396 -1.045)" fill="#fff"/>
      <path id="Trazado_174" data-name="Trazado 174" d="M378.9,29.841a1.494,1.494,0,0,1-.445.617,1.368,1.368,0,0,1-.836.212h-2.874l3-6.42L371.266,9.414h3.373a1.06,1.06,0,0,1,.718.218,1.438,1.438,0,0,1,.375.5l3.42,8.308a7.207,7.207,0,0,1,.3.844q.125.437.219.874.125-.453.274-.874t.32-.86l3.217-8.292a1.14,1.14,0,0,1,.414-.515,1.1,1.1,0,0,1,.648-.2h3.092Z" transform="translate(-42.468 -1.077)" fill="#fff"/>
      <path id="Trazado_175" data-name="Trazado 175" d="M5.1,1.289a1.565,1.565,0,0,1,.56-.966,1.61,1.61,0,0,1,1-.322H8.083L2.96,24.36a1.749,1.749,0,0,1-.577,1.052,1.6,1.6,0,0,1-.984.3H0Z" transform="translate(0 0)" fill="#fff"/>
    </g>
  </g>
</svg>
