<svg xmlns="http://www.w3.org/2000/svg" xmlns:xlink="http://www.w3.org/1999/xlink" width="463.602" height="39.746" viewBox="0 0 463.602 39.746">
  <defs>
    <clipPath id="clip-path">
      <rect id="Rectángulo_61" data-name="Rectángulo 61" width="463.602" height="39.746" fill="none"/>
    </clipPath>
  </defs>
  <g id="logo-medfluencers" transform="translate(-50.181 28)">
    <g id="Grupo_111" data-name="Grupo 111" transform="translate(50.181 -28)" clip-path="url(#clip-path)">
      <path id="Trazado_156" data-name="Trazado 156" d="M29.221,22.942,27.25,32.234h-.86a.634.634,0,0,1-.672-.692.961.961,0,0,1,.021-.23l1.8-8.37H21.293l-1.8,8.454a1.08,1.08,0,0,1-.357.651.981.981,0,0,1-.608.188h-.881l1.972-9.292H15.776a.714.714,0,0,1-.462-.136.608.608,0,0,1-.168-.492v-.2a1.7,1.7,0,0,1,.042-.3l.063-.335h4.572l1.72-8.16H16.238l.126-.8q.084-.692.923-.692h4.467l1.826-8.474a.965.965,0,0,1,.346-.6,1,1,0,0,1,.619-.2h.88l-1.992,9.271h6.251l1.994-9.271h.88a.566.566,0,0,1,.651.629,1.082,1.082,0,0,1-.021.251l-1.825,8.391h4.72l-.126.8q-.105.692-.944.692H31.152l-1.72,8.16H34.15q.63,0,.63.545l-.084.923ZM21.5,21.474h6.251l1.72-8.16H23.222Z" transform="translate(2.87 0.484)"/>
      <path id="Trazado_157" data-name="Trazado 157" d="M52.6,24.85c.084-.222.171-.444.263-.66a5.447,5.447,0,0,1,.3-.62L64.827,2.951a.763.763,0,0,1,.335-.335,1.332,1.332,0,0,1,.462-.063h1.489V32.234H65.226V6.936a11.317,11.317,0,0,1,.063-1.153L53.606,26.528a.916.916,0,0,1-.84.546H52.43a.943.943,0,0,1-.839-.546l-12-20.766a11.51,11.51,0,0,1,.063,1.174v25.3H37.789V2.553h1.469a1.433,1.433,0,0,1,.472.063.754.754,0,0,1,.346.335l11.977,20.64A8.538,8.538,0,0,1,52.6,24.85" transform="translate(7.161 0.484)"/>
      <path id="Trazado_158" data-name="Trazado 158" d="M77.115,9.678a8.6,8.6,0,0,1,3.262.608,7.336,7.336,0,0,1,2.6,1.774,8.173,8.173,0,0,1,1.72,2.862,11.4,11.4,0,0,1,.619,3.9,1.033,1.033,0,0,1-.137.628.515.515,0,0,1-.428.168H69.689v.4a14.149,14.149,0,0,0,.546,4.133,8.477,8.477,0,0,0,1.552,2.988,6.4,6.4,0,0,0,2.434,1.815,8.043,8.043,0,0,0,3.188.608,9.531,9.531,0,0,0,2.726-.346,10.169,10.169,0,0,0,1.941-.776,10.743,10.743,0,0,0,1.248-.777A1.414,1.414,0,0,1,84,27.318a.482.482,0,0,1,.42.211l.545.671a5.693,5.693,0,0,1-1.331,1.175,9.522,9.522,0,0,1-1.847.933,13.327,13.327,0,0,1-2.182.619,11.924,11.924,0,0,1-2.337.231,9.916,9.916,0,0,1-3.9-.745,8.29,8.29,0,0,1-3.024-2.171,9.939,9.939,0,0,1-1.951-3.492,14.938,14.938,0,0,1-.689-4.731,12.884,12.884,0,0,1,.64-4.142A9.495,9.495,0,0,1,70.183,12.6a8.408,8.408,0,0,1,2.957-2.151,9.72,9.72,0,0,1,3.975-.776m.031,1.489a7.836,7.836,0,0,0-2.89.5,6.331,6.331,0,0,0-2.21,1.448,7.423,7.423,0,0,0-1.508,2.265,10.379,10.379,0,0,0-.764,2.958h13.74a9.186,9.186,0,0,0-.462-3.011,6.457,6.457,0,0,0-1.3-2.255,5.631,5.631,0,0,0-2.011-1.415,6.646,6.646,0,0,0-2.6-.492" transform="translate(12.828 1.834)"/>
      <path id="Trazado_159" data-name="Trazado 159" d="M102.076,32.368a.558.558,0,0,1-.6-.545l-.211-3.294a11.1,11.1,0,0,1-3.245,3A7.969,7.969,0,0,1,93.85,32.64a7.283,7.283,0,0,1-6-2.663Q85.7,27.313,85.7,21.985a14.676,14.676,0,0,1,.6-4.268,10.128,10.128,0,0,1,1.765-3.44,8.369,8.369,0,0,1,2.856-2.3,8.662,8.662,0,0,1,3.9-.84,8.044,8.044,0,0,1,3.676.787,7.687,7.687,0,0,1,2.689,2.3V1.848h1.992v30.52Zm-7.659-1.342a6.866,6.866,0,0,0,3.761-1.069,10.66,10.66,0,0,0,3-2.98V15.965A7.356,7.356,0,0,0,98.5,13.448a7.974,7.974,0,0,0-6.543-.063,6.369,6.369,0,0,0-2.322,1.9,8.554,8.554,0,0,0-1.408,2.937,14.1,14.1,0,0,0-.472,3.765q0,4.657,1.722,6.849a5.909,5.909,0,0,0,4.938,2.192" transform="translate(16.24 0.35)"/>
      <path id="Trazado_160" data-name="Trazado 160" d="M107.5,32.318V13.629l-2.937-.189c-.406-.029-.608-.2-.608-.525V12.1H107.5V10.733a10.49,10.49,0,0,1,.545-3.429,7.755,7.755,0,0,1,1.6-2.737,7.208,7.208,0,0,1,2.611-1.8,9.253,9.253,0,0,1,3.577-.651q.712,0,1.479.043t1.489.1q.724.062,1.352.1t1.071.043h1.509V32.318h-1.992V3.812q-1.133-.041-2.381-.126T116.1,3.6a7.553,7.553,0,0,0-2.811.494A5.551,5.551,0,0,0,111.2,5.521a6.36,6.36,0,0,0-1.3,2.255,9.112,9.112,0,0,0-.451,2.957V12.1h6.041v1.489h-6V32.318Z" transform="translate(19.698 0.4)"/>
      <path id="Trazado_161" data-name="Trazado 161" d="M127.793,9.96V23.3a7.128,7.128,0,0,0,1.346,4.6,4.963,4.963,0,0,0,4.1,1.668,7.392,7.392,0,0,0,3.809-1.038,11.043,11.043,0,0,0,3.178-2.883V9.96h1.992V30.831h-1.1c-.387,0-.588-.181-.6-.545l-.19-3.1a11.856,11.856,0,0,1-3.35,2.9,8.36,8.36,0,0,1-4.233,1.091,7.833,7.833,0,0,1-3.045-.546,5.584,5.584,0,0,1-2.164-1.574,6.956,6.956,0,0,1-1.3-2.474,11.235,11.235,0,0,1-.44-3.272V9.96Z" transform="translate(23.839 1.887)"/>
      <path id="Trazado_162" data-name="Trazado 162" d="M153.434,9.678a8.6,8.6,0,0,1,3.262.608,7.336,7.336,0,0,1,2.6,1.774,8.173,8.173,0,0,1,1.72,2.862,11.4,11.4,0,0,1,.619,3.9,1.034,1.034,0,0,1-.137.628.515.515,0,0,1-.428.168H146.008v.4a14.148,14.148,0,0,0,.546,4.133,8.477,8.477,0,0,0,1.552,2.988,6.4,6.4,0,0,0,2.434,1.815,8.042,8.042,0,0,0,3.188.608,9.532,9.532,0,0,0,2.726-.346,10.171,10.171,0,0,0,1.941-.776,10.745,10.745,0,0,0,1.248-.777,1.414,1.414,0,0,1,.671-.346.482.482,0,0,1,.42.211l.545.671a5.694,5.694,0,0,1-1.331,1.175,9.521,9.521,0,0,1-1.847.933,13.326,13.326,0,0,1-2.182.619,11.924,11.924,0,0,1-2.337.231,9.916,9.916,0,0,1-3.9-.745,8.29,8.29,0,0,1-3.024-2.171,9.938,9.938,0,0,1-1.951-3.492,14.937,14.937,0,0,1-.689-4.731,12.883,12.883,0,0,1,.64-4.142A9.494,9.494,0,0,1,146.5,12.6a8.408,8.408,0,0,1,2.957-2.151,9.719,9.719,0,0,1,3.975-.776m.031,1.489a7.836,7.836,0,0,0-2.89.5,6.331,6.331,0,0,0-2.21,1.448,7.423,7.423,0,0,0-1.508,2.265,10.377,10.377,0,0,0-.764,2.958h13.74a9.185,9.185,0,0,0-.462-3.011,6.456,6.456,0,0,0-1.3-2.255,5.632,5.632,0,0,0-2.011-1.415,6.646,6.646,0,0,0-2.6-.492" transform="translate(27.29 1.834)"/>
      <path id="Trazado_163" data-name="Trazado 163" d="M163.343,30.884V10.013h1.091a.568.568,0,0,1,.629.525l.188,3.146a11.714,11.714,0,0,1,3.325-2.9,8.263,8.263,0,0,1,4.227-1.1,7.857,7.857,0,0,1,3.031.545A5.568,5.568,0,0,1,178,11.8a6.949,6.949,0,0,1,1.3,2.475,11.184,11.184,0,0,1,.441,3.272v13.34h-1.992V17.544a7.155,7.155,0,0,0-1.343-4.6,4.961,4.961,0,0,0-4.111-1.668,7.285,7.285,0,0,0-3.818,1.059,11.116,11.116,0,0,0-3.146,2.906V30.884Z" transform="translate(30.953 1.834)"/>
      <path id="Trazado_164" data-name="Trazado 164" d="M196.41,12.8a2.288,2.288,0,0,1-.2.178.421.421,0,0,1-.263.073,1.1,1.1,0,0,1-.577-.282,7.884,7.884,0,0,0-.975-.62,8.27,8.27,0,0,0-1.52-.619,8.5,8.5,0,0,0-5.412.357,6.336,6.336,0,0,0-2.349,1.835,8.429,8.429,0,0,0-1.458,2.894,13.438,13.438,0,0,0-.5,3.818,13.5,13.5,0,0,0,.514,3.9,8.306,8.306,0,0,0,1.458,2.863,6.217,6.217,0,0,0,2.286,1.772,7.13,7.13,0,0,0,2.978.608,7.712,7.712,0,0,0,2.528-.356,8.217,8.217,0,0,0,1.678-.777,7.417,7.417,0,0,0,1.048-.777,1.09,1.09,0,0,1,.619-.356.483.483,0,0,1,.42.209l.546.671a6.141,6.141,0,0,1-1.217,1.175,8.3,8.3,0,0,1-1.657.944,10.262,10.262,0,0,1-2,.619,11.3,11.3,0,0,1-2.255.22,8.962,8.962,0,0,1-3.64-.723,7.89,7.89,0,0,1-2.831-2.1,9.789,9.789,0,0,1-1.846-3.366,14.384,14.384,0,0,1-.66-4.531,14.288,14.288,0,0,1,.629-4.363,9.811,9.811,0,0,1,1.835-3.4,8.238,8.238,0,0,1,2.957-2.212,9.714,9.714,0,0,1,4.017-.786,9.474,9.474,0,0,1,3.618.649,8.9,8.9,0,0,1,2.758,1.762Z" transform="translate(34.321 1.834)"/>
      <path id="Trazado_165" data-name="Trazado 165" d="M206.582,9.678a8.6,8.6,0,0,1,3.262.608,7.336,7.336,0,0,1,2.6,1.774,8.173,8.173,0,0,1,1.72,2.862,11.4,11.4,0,0,1,.619,3.9,1.034,1.034,0,0,1-.137.628.515.515,0,0,1-.428.168H199.156v.4a14.148,14.148,0,0,0,.546,4.133,8.476,8.476,0,0,0,1.552,2.988,6.4,6.4,0,0,0,2.434,1.815,8.042,8.042,0,0,0,3.188.608,9.532,9.532,0,0,0,2.726-.346,10.168,10.168,0,0,0,1.941-.776,10.742,10.742,0,0,0,1.248-.777,1.414,1.414,0,0,1,.671-.346.482.482,0,0,1,.42.211l.545.671a5.692,5.692,0,0,1-1.331,1.175,9.522,9.522,0,0,1-1.847.933,13.327,13.327,0,0,1-2.182.619,11.925,11.925,0,0,1-2.337.231,9.915,9.915,0,0,1-3.9-.745,8.29,8.29,0,0,1-3.024-2.171,9.939,9.939,0,0,1-1.951-3.492,14.937,14.937,0,0,1-.689-4.731,12.883,12.883,0,0,1,.64-4.142A9.494,9.494,0,0,1,199.65,12.6a8.409,8.409,0,0,1,2.957-2.151,9.72,9.72,0,0,1,3.975-.776m.031,1.489a7.836,7.836,0,0,0-2.89.5,6.33,6.33,0,0,0-2.21,1.448A7.423,7.423,0,0,0,200,15.383a10.378,10.378,0,0,0-.764,2.958h13.74a9.186,9.186,0,0,0-.461-3.011,6.456,6.456,0,0,0-1.3-2.255,5.631,5.631,0,0,0-2.011-1.415,6.646,6.646,0,0,0-2.6-.492" transform="translate(37.361 1.834)"/>
      <path id="Trazado_166" data-name="Trazado 166" d="M216.492,30.888V10.017h1.048a.737.737,0,0,1,.514.146.723.723,0,0,1,.178.5l.168,4.406a9.926,9.926,0,0,1,2.686-3.975,6.133,6.133,0,0,1,4.132-1.437,7.139,7.139,0,0,1,1.74.2,6.674,6.674,0,0,1,1.511.577L228.2,11.82a.379.379,0,0,1-.42.335,1.126,1.126,0,0,1-.356-.083q-.232-.084-.578-.189a7.009,7.009,0,0,0-2-.272,5.373,5.373,0,0,0-3.891,1.468,10.511,10.511,0,0,0-2.465,4.238V30.888Z" transform="translate(41.024 1.83)"/>
      <path id="Trazado_167" data-name="Trazado 167" d="M242.232,12.615a.485.485,0,0,1-.462.294,1.14,1.14,0,0,1-.6-.263,9.537,9.537,0,0,0-.965-.586,7.853,7.853,0,0,0-1.468-.588,7.466,7.466,0,0,0-2.129-.263,6.253,6.253,0,0,0-2.066.325,5.13,5.13,0,0,0-1.594.868,3.925,3.925,0,0,0-1.028,1.266,3.3,3.3,0,0,0-.368,1.517,2.585,2.585,0,0,0,.5,1.632,4.329,4.329,0,0,0,1.322,1.109,10.068,10.068,0,0,0,1.857.795q1.038.335,2.129.671t2.129.745a7.981,7.981,0,0,1,1.856,1.017,4.814,4.814,0,0,1,1.322,1.489,4.25,4.25,0,0,1,.5,2.14,6.493,6.493,0,0,1-.492,2.537,5.764,5.764,0,0,1-1.426,2.035,6.835,6.835,0,0,1-2.3,1.363,8.932,8.932,0,0,1-3.1.5,9.382,9.382,0,0,1-3.8-.7,10.66,10.66,0,0,1-2.852-1.835l.483-.714a.8.8,0,0,1,.23-.251.644.644,0,0,1,.357-.084,1.155,1.155,0,0,1,.672.335,8.38,8.38,0,0,0,1.038.724,8.561,8.561,0,0,0,1.594.723,7.178,7.178,0,0,0,2.359.335,6.8,6.8,0,0,0,2.329-.366,4.856,4.856,0,0,0,1.678-1,4.157,4.157,0,0,0,1.017-1.479,4.709,4.709,0,0,0,.346-1.794,2.885,2.885,0,0,0-.5-1.741,4.313,4.313,0,0,0-1.322-1.174,9.275,9.275,0,0,0-1.857-.818q-1.038-.335-2.139-.671t-2.14-.735a7.731,7.731,0,0,1-1.857-1.006,4.86,4.86,0,0,1-1.322-1.479,4.283,4.283,0,0,1-.5-2.171,4.986,4.986,0,0,1,.482-2.14,5.461,5.461,0,0,1,1.375-1.8A6.744,6.744,0,0,1,233.7,10.14a8.444,8.444,0,0,1,2.874-.462,9.624,9.624,0,0,1,3.386.553,8.268,8.268,0,0,1,2.717,1.691Z" transform="translate(43.433 1.834)"/>
      <path id="Trazado_168" data-name="Trazado 168" d="M272.5,32.338h-4.363a1.9,1.9,0,0,1-1.206-.366,2.093,2.093,0,0,1-.682-.912l-2.266-6.188H251.423l-2.265,6.188a1.979,1.979,0,0,1-.661.88,1.85,1.85,0,0,1-1.2.4h-4.384L254.821,2.007h5.769ZM252.87,20.885h9.669L258.849,10.8q-.252-.671-.556-1.583t-.6-1.983q-.294,1.071-.577,1.992c-.188.616-.375,1.154-.555,1.615Z" transform="translate(46.029 0.38)"/>
      <path id="Trazado_169" data-name="Trazado 169" d="M285.524,14.019a2.53,2.53,0,0,1-.451.462,1.042,1.042,0,0,1-.64.168,1.424,1.424,0,0,1-.776-.241q-.378-.241-.9-.545a6.671,6.671,0,0,0-1.248-.546,5.741,5.741,0,0,0-1.794-.24,5.474,5.474,0,0,0-2.391.492,4.531,4.531,0,0,0-1.709,1.415,6.4,6.4,0,0,0-1.018,2.234,12.068,12.068,0,0,0-.335,2.969,11.62,11.62,0,0,0,.368,3.062,6.545,6.545,0,0,0,1.059,2.255,4.561,4.561,0,0,0,1.678,1.383,5.082,5.082,0,0,0,2.224.472,5.5,5.5,0,0,0,2-.3,6.278,6.278,0,0,0,1.289-.67q.525-.368.912-.672a1.38,1.38,0,0,1,.871-.3,1.051,1.051,0,0,1,.944.483l1.489,1.888a9.427,9.427,0,0,1-1.868,1.689,10.138,10.138,0,0,1-2.086,1.091,10.7,10.7,0,0,1-2.234.577,16.066,16.066,0,0,1-2.287.168,9.55,9.55,0,0,1-3.754-.745,8.781,8.781,0,0,1-3.074-2.171,10.513,10.513,0,0,1-2.077-3.492,13.5,13.5,0,0,1-.765-4.709,13.7,13.7,0,0,1,.682-4.4,9.944,9.944,0,0,1,2-3.5,9.183,9.183,0,0,1,3.272-2.317,11.255,11.255,0,0,1,4.489-.84,10.7,10.7,0,0,1,4.226.776,10.352,10.352,0,0,1,3.262,2.224Z" transform="translate(50.965 1.73)"/>
      <path id="Trazado_170" data-name="Trazado 170" d="M304.028,31H301.7a2.508,2.508,0,0,1-1.153-.22,1.417,1.417,0,0,1-.63-.892l-.46-1.531a17.825,17.825,0,0,1-1.606,1.291,9.777,9.777,0,0,1-1.625.933,8.273,8.273,0,0,1-1.783.566,10.707,10.707,0,0,1-2.1.189,8.222,8.222,0,0,1-2.518-.369,5.418,5.418,0,0,1-1.982-1.1,5.038,5.038,0,0,1-1.291-1.832,6.524,6.524,0,0,1-.462-2.546,5.034,5.034,0,0,1,.64-2.411,6.037,6.037,0,0,1,2.129-2.146,13.591,13.591,0,0,1,3.965-1.589,25.31,25.31,0,0,1,6.146-.632V17.438a4.812,4.812,0,0,0-.912-3.224,3.332,3.332,0,0,0-2.654-1.046,6.405,6.405,0,0,0-2.1.294,8.031,8.031,0,0,0-1.458.66q-.619.368-1.143.66a2.316,2.316,0,0,1-1.154.295,1.5,1.5,0,0,1-.9-.274,2.145,2.145,0,0,1-.609-.671l-.943-1.657a12.794,12.794,0,0,1,8.957-3.4,8.649,8.649,0,0,1,3.366.619,7.159,7.159,0,0,1,2.506,1.72,7.377,7.377,0,0,1,1.563,2.632,10.118,10.118,0,0,1,.535,3.357Zm-10.069-3.231a6.989,6.989,0,0,0,1.469-.145,5.583,5.583,0,0,0,1.269-.433,6.816,6.816,0,0,0,1.153-.711,10.561,10.561,0,0,0,1.123-1v-3.6a21.006,21.006,0,0,0-3.786.285,9.982,9.982,0,0,0-2.443.728,3.156,3.156,0,0,0-1.312,1.036,2.3,2.3,0,0,0-.388,1.288,2.273,2.273,0,0,0,.808,1.965,3.486,3.486,0,0,0,2.108.591" transform="translate(54.213 1.72)"/>
      <path id="Trazado_171" data-name="Trazado 171" d="M320.837,32.472a1.273,1.273,0,0,1-1.322-.944l-.42-2.077a12.824,12.824,0,0,1-1.4,1.364,8.923,8.923,0,0,1-1.584,1.049,8.218,8.218,0,0,1-1.825.68,8.706,8.706,0,0,1-2.108.243,7.013,7.013,0,0,1-5.758-2.864,10.172,10.172,0,0,1-1.636-3.451,17.381,17.381,0,0,1-.577-4.7,14.648,14.648,0,0,1,.651-4.446,10.815,10.815,0,0,1,1.866-3.566,8.72,8.72,0,0,1,2.915-2.36,8.42,8.42,0,0,1,3.818-.849,7.476,7.476,0,0,1,3.083.577,8.062,8.062,0,0,1,2.286,1.542V1.3H324V32.472Zm-6.9-3.8A5.31,5.31,0,0,0,316.684,28a8.161,8.161,0,0,0,2.139-1.909V16.446a5.092,5.092,0,0,0-1.919-1.509,5.66,5.66,0,0,0-2.235-.441,5.012,5.012,0,0,0-2.128.441,4.147,4.147,0,0,0-1.615,1.331,6.542,6.542,0,0,0-1.018,2.266,13.046,13.046,0,0,0-.357,3.24,14.428,14.428,0,0,0,.3,3.2,6.327,6.327,0,0,0,.871,2.14,3.312,3.312,0,0,0,1.385,1.194,4.4,4.4,0,0,0,1.825.368" transform="translate(57.645 0.246)"/>
      <path id="Trazado_172" data-name="Trazado 172" d="M334.682,9.131a10.48,10.48,0,0,1,3.746.651,8.2,8.2,0,0,1,2.945,1.9,8.7,8.7,0,0,1,1.931,3.063A11.565,11.565,0,0,1,344,18.885a7.35,7.35,0,0,1-.053.975,1.572,1.572,0,0,1-.188.608.768.768,0,0,1-.368.315,1.562,1.562,0,0,1-.588.094H329.5a7.41,7.41,0,0,0,1.782,4.866,5.559,5.559,0,0,0,4.111,1.552A7.112,7.112,0,0,0,337.567,27a10.156,10.156,0,0,0,1.594-.649q.682-.357,1.2-.651a2.013,2.013,0,0,1,1-.294,1.139,1.139,0,0,1,.546.126,1.213,1.213,0,0,1,.4.357l1.511,1.888a8.608,8.608,0,0,1-1.931,1.689,10.931,10.931,0,0,1-2.234,1.091,12.217,12.217,0,0,1-2.371.576,16.968,16.968,0,0,1-2.339.169,11.5,11.5,0,0,1-4.174-.745,9.36,9.36,0,0,1-3.357-2.2,10.329,10.329,0,0,1-2.243-3.608,13.95,13.95,0,0,1-.818-4.983,11.9,11.9,0,0,1,.712-4.142,9.96,9.96,0,0,1,2.046-3.377A9.619,9.619,0,0,1,330.35,9.97a10.722,10.722,0,0,1,4.332-.839m.106,3.712a4.789,4.789,0,0,0-3.546,1.28,6.306,6.306,0,0,0-1.637,3.628h9.735a6.413,6.413,0,0,0-.275-1.9,4.4,4.4,0,0,0-.837-1.563,3.986,3.986,0,0,0-1.427-1.059,4.849,4.849,0,0,0-2.013-.389" transform="translate(61.461 1.73)"/>
      <path id="Trazado_173" data-name="Trazado 173" d="M344.409,30.988V9.466h3.168a1.273,1.273,0,0,1,1.322.944L349.234,12a12.407,12.407,0,0,1,1.185-1.154,7.57,7.57,0,0,1,1.322-.9,7.169,7.169,0,0,1,1.511-.6,6.74,6.74,0,0,1,1.772-.22,5.028,5.028,0,0,1,3.346,1.1,6.642,6.642,0,0,1,1.961,2.926,6.58,6.58,0,0,1,1.257-1.835,6.918,6.918,0,0,1,1.658-1.249,7.663,7.663,0,0,1,1.919-.713,9.244,9.244,0,0,1,2.045-.231,8.619,8.619,0,0,1,3.169.545,6.086,6.086,0,0,1,2.328,1.6,7.044,7.044,0,0,1,1.437,2.559,11.159,11.159,0,0,1,.492,3.461v13.7h-5.18v-13.7a4.6,4.6,0,0,0-.9-3.094,3.31,3.31,0,0,0-2.643-1.038,3.938,3.938,0,0,0-1.479.272,3.526,3.526,0,0,0-1.2.786,3.6,3.6,0,0,0-.808,1.291,5,5,0,0,0-.294,1.783v13.7h-5.2v-13.7a4.686,4.686,0,0,0-.871-3.146,3.245,3.245,0,0,0-2.569-.986,4.157,4.157,0,0,0-2.088.555,7.023,7.023,0,0,0-1.814,1.521V30.988Z" transform="translate(65.263 1.73)"/>
      <path id="Trazado_174" data-name="Trazado 174" d="M381.523,36.85a2.007,2.007,0,0,1-.6.829,1.837,1.837,0,0,1-1.123.284h-3.86l4.028-8.623-8.7-19.926H375.8a1.423,1.423,0,0,1,.965.293,1.931,1.931,0,0,1,.5.672l4.594,11.159a9.678,9.678,0,0,1,.4,1.134q.168.587.294,1.174.168-.608.368-1.174t.429-1.155l4.321-11.137a1.532,1.532,0,0,1,.556-.692,1.479,1.479,0,0,1,.871-.272h4.152Z" transform="translate(70.353 1.784)"/>
      <path id="Trazado_175" data-name="Trazado 175" d="M6.848,1.731A2.1,2.1,0,0,1,7.6.433,2.162,2.162,0,0,1,8.944,0h1.913L3.975,32.718A2.349,2.349,0,0,1,3.2,34.131a2.142,2.142,0,0,1-1.322.408H0Z" transform="translate(0 0)"/>
    </g>
  </g>
</svg>
