<svg xmlns="http://www.w3.org/2000/svg" xmlns:xlink="http://www.w3.org/1999/xlink" width="95.527" height="36.066" viewBox="0 0 95.527 36.066">
  <defs>
    <clipPath id="clip-path">
      <rect id="Rectángulo_74" data-name="Rectángulo 74" width="95.527" height="36.066" fill="none"/>
    </clipPath>
  </defs>
  <g id="isdi" transform="translate(0)">
    <g id="Grupo_119" data-name="Grupo 119" transform="translate(0)" clip-path="url(#clip-path)">
      <path id="Trazado_218" data-name="Trazado 218" d="M410.7,103.794l.417-1.043H412.6l.422,1.042h.621l-1.513-3.836h-.541l-1.521,3.837Zm1.156-3.149c.253.582.435,1.1.625,1.651h-1.257l.632-1.651" transform="translate(-344.114 -83.879)"/>
      <path id="Trazado_219" data-name="Trazado 219" d="M438.837,103.242h-2.08V99.947h-.522v3.833h2.6Z" transform="translate(-366.069 -83.871)"/>
      <rect id="Rectángulo_70" data-name="Rectángulo 70" width="0.516" height="3.836" transform="translate(61.836 16.081)"/>
      <path id="Trazado_220" data-name="Trazado 220" d="M392.927,103.831h.6v-3.337h1.243V100h-3.138v.518h1.3Z" transform="translate(-328.639 -83.914)"/>
      <path id="Trazado_221" data-name="Trazado 221" d="M465.372,103.822h.6V100.5h1.241V100h-3.136v.5h1.3Z" transform="translate(-389.431 -83.918)"/>
      <path id="Trazado_222" data-name="Trazado 222" d="M575.714,103.825h.585V100.5h1.252v-.491h-3.134v.519h1.3Z" transform="translate(-482.025 -83.921)"/>
      <path id="Trazado_223" data-name="Trazado 223" d="M358.037,103.533a1.6,1.6,0,0,0,1.689-.361l.046.421h.447v-1.9h-1.288l.023.375h.818a1.178,1.178,0,0,1-.145.58,1.2,1.2,0,0,1-2.016-.2,1.6,1.6,0,0,1,.04-1.647,1.167,1.167,0,0,1,1.263-.517,1.4,1.4,0,0,1,.776.583l.41-.313a1.7,1.7,0,0,0-2.258-.658,2.009,2.009,0,0,0-.843,2.653,1.8,1.8,0,0,0,1.038.976" transform="translate(-299.409 -83.687)"/>
      <rect id="Rectángulo_71" data-name="Rectángulo 71" width="4.41" height="16.172" transform="translate(27.188 19.862)"/>
      <path id="Trazado_224" data-name="Trazado 224" d="M550.493,103.765v-2.73l2.2,2.728h.463V99.946h-.562v2.764l-2.21-2.776h-.44v3.831Z" transform="translate(-461.487 -83.86)"/>
      <path id="Trazado_225" data-name="Trazado 225" d="M483.152,103.769l.415-1.036h1.491l.419,1.038h.622l-1.515-3.839h-.538l-1.519,3.837Zm.519-1.484.644-1.678.632,1.678Z" transform="translate(-404.915 -83.858)"/>
      <path id="Trazado_226" data-name="Trazado 226" d="M511.276,103.241H509.2V99.946h-.522v3.833h2.6Z" transform="translate(-426.857 -83.87)"/>
      <path id="Trazado_227" data-name="Trazado 227" d="M531.423,103.3H529.4v-1.178h1.71V101.6H529.4v-1.1h1.958V100h-2.525v3.817h2.586Z" transform="translate(-443.776 -83.913)"/>
      <path id="Trazado_228" data-name="Trazado 228" d="M72.034,123.392h-.351v16.2c.083.006.134.013.185.013,1.864,0,3.729.022,5.593-.011a10.271,10.271,0,0,0,2.175-.242,7.126,7.126,0,0,0,5.567-5.187,9.339,9.339,0,0,0-.166-5.833,7,7,0,0,0-3.646-4.088,8.817,8.817,0,0,0-3.88-.844c-1.826-.016-3.651,0-5.477,0m4.07,3.9a11.981,11.981,0,0,1,1.816.036,3.272,3.272,0,0,1,2.3,1.319,4.138,4.138,0,0,1,.749,1.876,5.642,5.642,0,0,1-.205,2.737,3.346,3.346,0,0,1-3.043,2.445c-.521.049-1.051.008-1.621.008Z" transform="translate(-60.153 -103.541)"/>
      <path id="Trazado_229" data-name="Trazado 229" d="M118.452,12.338a1.194,1.194,0,0,1-.326.107,5.572,5.572,0,0,1-2.105-.048,12.237,12.237,0,0,1-2.853-.907c-.513-.227-1.013-.482-1.535-.732l-2.1,3.884c.188.1.342.188.5.262a18.326,18.326,0,0,0,6,1.576,11.706,11.706,0,0,0,4.2-.326,5.756,5.756,0,0,0,2.342-1.2,4.634,4.634,0,0,0,1.487-4.069,3.92,3.92,0,0,0-2.2-3.307,10.164,10.164,0,0,0-.934-.455,31.5,31.5,0,0,0-3.664-1.164,10.152,10.152,0,0,1-1.435-.541.7.7,0,0,1-.433-.785.68.68,0,0,1,.642-.576,6.457,6.457,0,0,1,1.491-.042,11.352,11.352,0,0,1,3.454,1.147l.562.271,2.107-3.667A21.974,21.974,0,0,0,120.618.582a11.281,11.281,0,0,0-5.437-.41,6.83,6.83,0,0,0-3,1.324,4.861,4.861,0,0,0-1.87,4.155,3.63,3.63,0,0,0,.776,2.291,4.858,4.858,0,0,0,1.539,1.2,17.563,17.563,0,0,0,3.394,1.223c.616.174,1.237.339,1.841.551a2.185,2.185,0,0,1,.746.455.583.583,0,0,1-.155.967" transform="translate(-91.914 0)"/>
      <rect id="Rectángulo_72" data-name="Rectángulo 72" width="4.379" height="16.161" transform="translate(11.522 0.143)"/>
      <path id="Trazado_230" data-name="Trazado 230" d="M7.165,84.707.747,79.625l6.406-5.072v-.876L0,79.339v.574l7.165,5.669Z" transform="translate(0 -61.826)"/>
      <rect id="Rectángulo_73" data-name="Rectángulo 73" width="0.524" height="3.825" transform="translate(56.045 16.083)"/>
      <path id="Trazado_231" data-name="Trazado 231" d="M223.637,84.676v.876l7.155-5.661v-.567l-7.165-5.668v.875l6.413,5.077-6.4,5.068" transform="translate(-187.658 -61.809)"/>
      <path id="Trazado_232" data-name="Trazado 232" d="M324.779,103.722a1.761,1.761,0,0,0,1.879-1.612,1.833,1.833,0,0,0-1.876-2.255c-.347,0-.694,0-1.041,0a2.78,2.78,0,0,0-.281.03v3.836c.452,0,.886,0,1.32,0m-.753-3.322a3.55,3.55,0,0,1,1.222.058,1.1,1.1,0,0,1,.73.738,1.748,1.748,0,0,1-.03,1.244,1.107,1.107,0,0,1-1,.735c-.293.022-.589,0-.925,0Z" transform="translate(-271.432 -83.794)"/>
    </g>
  </g>
</svg>
